<svg width="35" height="35" viewBox="0 0 35 35" fill="none" xmlns="http://www.w3.org/2000/svg">
<path d="M10.2085 13.125H17.5002M21.8752 13.125H24.7918M10.2085 17.5H13.1252M17.5002 17.5H24.7918M7.29183 7.29169H27.7085C28.0953 7.29169 28.4662 7.44533 28.7397 7.71882C29.0132 7.99231 29.1668 8.36325 29.1668 8.75002V21.875C29.1668 22.2618 29.0132 22.6327 28.7397 22.9062C28.4662 23.1797 28.0953 23.3334 27.7085 23.3334H18.0602C17.6993 23.3331 17.3512 23.4666 17.0831 23.7081L12.8831 27.4881C12.7783 27.5822 12.6484 27.644 12.5093 27.6658C12.3701 27.6877 12.2276 27.6688 12.099 27.6115C11.9703 27.5541 11.8611 27.4607 11.7844 27.3425C11.7077 27.2243 11.6669 27.0865 11.6668 26.9456V24.7917C11.6668 24.4049 11.5132 24.034 11.2397 23.7605C10.9662 23.487 10.5953 23.3334 10.2085 23.3334H7.29183C6.90506 23.3334 6.53412 23.1797 6.26063 22.9062C5.98714 22.6327 5.8335 22.2618 5.8335 21.875V8.75002C5.8335 8.36325 5.98714 7.99231 6.26063 7.71882C6.53412 7.44533 6.90506 7.29169 7.29183 7.29169Z" stroke="white" stroke-width="2" stroke-linecap="round" stroke-linejoin="round"/>
</svg>
