<svg width="35" height="35" viewBox="0 0 35 35" fill="none" xmlns="http://www.w3.org/2000/svg">
<path d="M30.625 18.9583V16.0417C30.625 15.6549 30.4714 15.284 30.1979 15.0105C29.9244 14.737 29.5534 14.5833 29.1667 14.5833H28.0627L27.0317 12.094L27.8119 11.3123C28.0853 11.0388 28.2389 10.6679 28.2389 10.2813C28.2389 9.89455 28.0853 9.52369 27.8119 9.25021L25.7498 7.18812C25.4763 6.91473 25.1054 6.76115 24.7188 6.76115C24.3321 6.76115 23.9612 6.91473 23.6877 7.18812L22.906 7.96833L20.4167 6.93729V5.83333C20.4167 5.44656 20.263 5.07563 19.9895 4.80214C19.716 4.52865 19.3451 4.375 18.9583 4.375H16.0417C15.6549 4.375 15.284 4.52865 15.0105 4.80214C14.737 5.07563 14.5833 5.44656 14.5833 5.83333V6.93729L12.094 7.96833L11.3123 7.18812C11.0388 6.91473 10.6679 6.76115 10.2813 6.76115C9.89455 6.76115 9.52369 6.91473 9.25021 7.18812L7.18812 9.25021C6.91473 9.52369 6.76115 9.89455 6.76115 10.2813C6.76115 10.6679 6.91473 11.0388 7.18812 11.3123L7.96979 12.094L6.93729 14.5833H5.83333C5.44656 14.5833 5.07563 14.737 4.80214 15.0105C4.52865 15.284 4.375 15.6549 4.375 16.0417V18.9583C4.375 19.3451 4.52865 19.716 4.80214 19.9895C5.07563 20.263 5.44656 20.4167 5.83333 20.4167H6.93729L7.96833 22.906L7.18812 23.6877C6.91473 23.9612 6.76115 24.3321 6.76115 24.7188C6.76115 25.1054 6.91473 25.4763 7.18812 25.7498L9.25021 27.8119C9.52369 28.0853 9.89455 28.2389 10.2813 28.2389C10.6679 28.2389 11.0388 28.0853 11.3123 27.8119L12.094 27.0317L14.5833 28.0627V29.1667C14.5833 29.5534 14.737 29.9244 15.0105 30.1979C15.284 30.4714 15.6549 30.625 16.0417 30.625H18.9583C19.3451 30.625 19.716 30.4714 19.9895 30.1979C20.263 29.9244 20.4167 29.5534 20.4167 29.1667V28.0627L22.906 27.0302L23.6877 27.8119C23.9612 28.0853 24.3321 28.2389 24.7188 28.2389C25.1054 28.2389 25.4763 28.0853 25.7498 27.8119L27.8119 25.7498C28.0853 25.4763 28.2389 25.1054 28.2389 24.7188C28.2389 24.3321 28.0853 23.9612 27.8119 23.6877L27.0317 22.906L28.0627 20.4167H29.1667C29.5534 20.4167 29.9244 20.263 30.1979 19.9895C30.4714 19.716 30.625 19.3451 30.625 18.9583Z" stroke="white" stroke-width="2" stroke-linecap="round" stroke-linejoin="round"/>
<path d="M17.5 21.875C18.6603 21.875 19.7731 21.4141 20.5936 20.5936C21.4141 19.7731 21.875 18.6603 21.875 17.5C21.875 16.3397 21.4141 15.2269 20.5936 14.4064C19.7731 13.5859 18.6603 13.125 17.5 13.125C16.3397 13.125 15.2269 13.5859 14.4064 14.4064C13.5859 15.2269 13.125 16.3397 13.125 17.5C13.125 18.6603 13.5859 19.7731 14.4064 20.5936C15.2269 21.4141 16.3397 21.875 17.5 21.875Z" stroke="white" stroke-width="2" stroke-linecap="round" stroke-linejoin="round"/>
</svg>
