<svg width="35" height="35" viewBox="0 0 35 35" fill="none" xmlns="http://www.w3.org/2000/svg">
<path d="M17.4998 7.82396V4.375M17.4998 7.82396C19.5198 7.90155 21.4303 8.76182 22.8273 10.2228C24.2244 11.6838 24.9983 13.6309 24.9855 15.6523V18.2773C24.9855 21.7569 27.7082 22.626 27.7082 24.3658C27.7082 25.2306 27.7082 26.25 26.9236 26.25H8.07609C7.2915 26.25 7.2915 25.2306 7.2915 24.3658C7.2915 22.626 10.0142 21.7569 10.0142 18.2773V15.6523C10.0014 13.6309 10.7753 11.6838 12.1723 10.2228C13.5694 8.76182 15.4799 7.90155 17.4998 7.82396ZM12.7355 26.25C12.8725 27.4925 13.1817 28.4958 14.1121 29.33C15.0431 30.1647 16.2495 30.6262 17.4998 30.6262C18.7502 30.6262 19.9565 30.1647 20.8875 29.33C21.818 28.4958 22.69 27.4925 22.8271 26.25H12.7355Z" stroke="white" stroke-width="2" stroke-linecap="round" stroke-linejoin="round"/>
</svg>
