<svg width="35" height="35" viewBox="0 0 35 35" fill="none" xmlns="http://www.w3.org/2000/svg">
<path d="M5.7915 26.25V24.7917C5.7915 23.6314 6.25244 22.5186 7.07291 21.6981C7.89338 20.8776 9.00618 20.4167 10.1665 20.4167H15.9998C17.1602 20.4167 18.273 20.8776 19.0934 21.6981C19.9139 22.5186 20.3748 23.6314 20.3748 24.7917V26.25C20.3748 26.6368 20.2212 27.0077 19.9477 27.2812C19.6742 27.5547 19.3033 27.7084 18.9165 27.7084H7.24984C6.86306 27.7084 6.49213 27.5547 6.21864 27.2812C5.94515 27.0077 5.7915 26.6368 5.7915 26.25ZM17.4582 11.6667C17.4582 12.827 16.9972 13.9398 16.1768 14.7603C15.3563 15.5808 14.2435 16.0417 13.0832 16.0417C11.9228 16.0417 10.8101 15.5808 9.98958 14.7603C9.16911 13.9398 8.70817 12.827 8.70817 11.6667C8.70817 10.5064 9.16911 9.39357 9.98958 8.57309C10.8101 7.75262 11.9228 7.29169 13.0832 7.29169C14.2435 7.29169 15.3563 7.75262 16.1768 8.57309C16.9972 9.39357 17.4582 10.5064 17.4582 11.6667Z" stroke="white" stroke-width="2" stroke-linecap="round" stroke-linejoin="round"/>
<path d="M23.375 17.5H29.2083M26.2917 20.4167V14.5834" stroke="white" stroke-width="2" stroke-linecap="round" stroke-linejoin="round"/>
</svg>
