<svg width="35" height="35" viewBox="0 0 35 35" fill="none" xmlns="http://www.w3.org/2000/svg">
<path d="M22.86 8.0642L27.0192 12.2234M12.2083 11.2084H7.83333C7.44656 11.2084 7.07563 11.362 6.80214 11.6355C6.52865 11.909 6.375 12.2799 6.375 12.6667V27.25C6.375 27.6368 6.52865 28.0077 6.80214 28.2812C7.07563 28.5547 7.44656 28.7084 7.83333 28.7084H23.875C24.2618 28.7084 24.6327 28.5547 24.9062 28.2812C25.1797 28.0077 25.3333 27.6368 25.3333 27.25V20.6875M28.8465 6.23545C29.1197 6.50861 29.3365 6.83292 29.4844 7.18987C29.6323 7.54681 29.7084 7.9294 29.7084 8.31577C29.7084 8.70214 29.6323 9.08472 29.4844 9.44167C29.3365 9.79861 29.1197 10.1229 28.8465 10.3961L18.8656 20.3769L13.6667 21.4167L14.7065 16.2177L24.6873 6.23691C24.9602 5.96353 25.2844 5.74664 25.6412 5.59866C25.9981 5.45068 26.3806 5.37451 26.7669 5.37451C27.1532 5.37451 27.5357 5.45068 27.8925 5.59866C28.2494 5.74664 28.5735 5.96353 28.8465 6.23691V6.23545Z" stroke="white" stroke-width="2" stroke-linecap="round" stroke-linejoin="round"/>
</svg>
